<?xml version="1.0" encoding="UTF-8"?>
<!DOCTYPE svg PUBLIC "-//W3C//DTD SVG 1.1//EN" "http://www.w3.org/Graphics/SVG/1.1/DTD/svg11.dtd">
<!-- Creator: CorelDRAW 2017 -->
<svg xmlns="http://www.w3.org/2000/svg" xml:space="preserve" width="100%" height="100%" version="1.1" style="shape-rendering:geometricPrecision; text-rendering:geometricPrecision; image-rendering:optimizeQuality; fill-rule:evenodd; clip-rule:evenodd"
viewBox="0 0 7300.8 8466.66"
 xmlns:xlink="http://www.w3.org/1999/xlink">
 <defs>
  <style type="text/css">
   <![CDATA[
    .fil0 {fill:#23376C;fill-rule:nonzero}
   ]]>
  </style>
 </defs>
 <g id="Warstwa_x0020_1">
  <metadata id="CorelCorpID_0Corel-Layer"/>
  <g>
   <path class="fil0" d="M7011.07 7130.91c-122.96,0 -214.7,32.03 -271.43,96.29 -59.21,61.88 -86.47,155.49 -86.47,276.59l0 592.4 -187.21 0 0 -1138.3 187.21 0 0 113.81c24.89,-37.23 54.4,-64.56 86.47,-83.95 76.58,-51.89 170.38,-69.03 271.43,-69.03l0 212.19zm-7010.42 -7130.75l0 8466.51c2433.14,0 4866.36,0 7299.5,0l0 -8466.67c-2433.3,0 -4866.4,0.16 -7299.5,0.16zm2620.74 7940.34c120.83,12.68 247.12,-51.77 306.14,-221.88l207.53 0c-88.72,257.9 -262.52,418.01 -509.83,407.31 -54.33,-2.48 -113.58,-12.37 -175.31,-32.11 -316.03,-101.24 -407.39,-530.85 -320.99,-809.86 68.75,-233.16 276.59,-358.92 498.62,-362.83 393.82,2.32 529.65,343.1 519.65,659.17 -282.61,0 -565.29,-0.04 -847.89,-0.04 0,200.87 160.46,345.78 322.08,360.12l0 0.12zm-2531.87 -1424.4l0 -6417.18c2369.71,0 4739.49,0.16 7109.39,0.16l0 6417.22c-2369.94,0 -4739.57,-0.2 -7109.39,-0.2zm1530.82 624.66c-27.19,-24.7 -64.18,-37.03 -118.5,-37.03 -197.53,0 -283.96,133.35 -298.78,306.18l0 686.4 -185.19 0 0 -785.2c0,-113.54 -44.44,-207.38 -172.83,-207.38 -217.26,0 -311.1,158.02 -311.1,355.55l0 637.03 -190.12 0 0 -1138.27 190.12 0 0 103.73c150.64,-172.87 508.63,-217.3 624.69,22.22 113.57,-123.46 303.69,-190.12 461.71,-150.65 86.39,19.78 162.97,71.62 212.34,160.5 44.43,79.03 49.36,212.34 41.95,365.44l-2.44 637.03 -185.2 0 0 -708.66c0,-91.32 -2.48,-192.56 -66.65,-246.89zm5099.64 -6565.19l0 5505.96c-421.42,-1835.28 -840.01,-3671.34 -1264.27,-5505.96 421.39,0 842.89,0 1264.27,0zm-4066.45 5505.96l-293.8 0 -807.48 -3632.02 -970.31 3632.02 0 -5505.96 1034.56 0 434.33 0 -338.01 1271.42 940.71 4234.54zm1493.67 -5505.96l-293.54 1093.71 975.04 4412.25 -318.32 0 -1222.42 -5505.96 859.24 0zm1187.45 6947.96c0,-195.09 116.41,-419.76 340.89,-419.76 224.78,0 338.44,224.67 338.44,419.76 0,195.09 -116.1,417.12 -338.44,419.76 -224.48,0 -340.89,-224.67 -340.89,-419.76zm-2713.26 -419.76c-195.4,7.21 -303.78,135.95 -325.99,313.51 215.63,0 431.34,0 646.98,0 -12.52,-160.5 -135.83,-303.78 -303.74,-313.51 -4.96,0 -12.33,0 -17.25,0zm953.08 -39.55c143.24,-133.2 333.33,-175.47 484.05,-123.51 138.12,49.75 244.14,177.79 244.14,385.1l0 770.38 -187.41 0 0 -743.16c0,-76.39 -22.14,-135.84 -56.73,-177.87 -140.99,-162.71 -484.05,-46.77 -484.05,252.09l0 668.94 -187.63 0 0 -1138.3 187.63 0 0 106.33zm1019.63 -303.44l185.16 -133.78 0 330.89 202.53 0 0 173.02 -202.53 0c0,251.78 0,496.39 0,752.78 0,54.48 34.82,69.49 74.18,69.49 39.59,0 93.8,-15.01 135.83,-19.97l41.61 162.98c-81.39,24.74 -204.7,47.19 -295.9,17.41 -14.93,-4.92 -32.07,-12.29 -44.71,-19.7 -73.95,-44.51 -96.17,-126.06 -96.17,-205.17l0 -757.82 -155.38 0 0 -173.02 155.38 0 0 -197.11zm1609.8 762.75c0,302.65 -198.14,604.88 -527.12,604.88 -334.33,0 -534.61,-299.2 -534.61,-604.88 0,-303.82 200.28,-600.08 534.61,-602.36 327.04,4.11 527.12,298.66 527.12,602.36z"/>
  </g>
 </g>
</svg>
