<svg aria-hidden="true" style="position: absolute; width: 0; height: 0; overflow: hidden;" version="1.1" xmlns="http://www.w3.org/2000/svg" xmlns:xlink="http://www.w3.org/1999/xlink">
<defs>
<symbol id="icon-logo_mentor" viewBox="0 0 28 32">
<path fill="#23376c" style="fill: var(--color1, #23376c)" d="M26.499 26.951c-0.465 0-0.811 0.121-1.026 0.364-0.224 0.234-0.327 0.588-0.327 1.045v2.239h-0.708v-4.302h0.708v0.43c0.094-0.141 0.206-0.244 0.327-0.317 0.289-0.196 0.644-0.261 1.026-0.261v0.802zM0.002 0.001v31.999c9.196 0 18.393 0 27.589 0v-32c-9.197 0-18.393 0.001-27.589 0.001zM9.908 30.011c0.457 0.048 0.934-0.196 1.157-0.839h0.784c-0.335 0.975-0.992 1.58-1.927 1.539-0.205-0.009-0.429-0.047-0.663-0.121-1.194-0.383-1.54-2.006-1.213-3.061 0.26-0.881 1.045-1.357 1.885-1.371 1.488 0.009 2.002 1.297 1.964 2.491-1.068 0-2.137-0-3.205-0 0 0.759 0.606 1.307 1.217 1.361v0zM0.338 24.628v-24.254c8.956 0 17.913 0.001 26.87 0.001v24.254c-8.957 0-17.913-0.001-26.87-0.001zM6.124 26.989c-0.103-0.093-0.243-0.14-0.448-0.14-0.747 0-1.073 0.504-1.129 1.157v2.594h-0.7v-2.968c0-0.429-0.168-0.784-0.653-0.784-0.821 0-1.176 0.597-1.176 1.344v2.408h-0.719v-4.302h0.719v0.392c0.569-0.653 1.922-0.821 2.361 0.084 0.429-0.467 1.148-0.719 1.745-0.569 0.327 0.075 0.616 0.271 0.803 0.607 0.168 0.299 0.187 0.803 0.159 1.381l-0.009 2.408h-0.7v-2.678c0-0.345-0.009-0.728-0.252-0.933zM25.398 2.175v20.81c-1.593-6.936-3.175-13.876-4.778-20.81 1.593 0 3.186 0 4.778 0zM10.029 22.985h-1.11l-3.052-13.727-3.667 13.727v-20.81h5.552l-1.278 4.805 3.555 16.005zM15.674 2.175l-1.109 4.134 3.685 16.676h-1.203l-4.62-20.81h3.248zM20.162 28.435c0-0.737 0.44-1.587 1.288-1.587 0.85 0 1.279 0.849 1.279 1.587s-0.439 1.577-1.279 1.587c-0.848 0-1.288-0.849-1.288-1.587zM9.908 26.849c-0.739 0.027-1.148 0.514-1.232 1.185 0.815 0 1.63 0 2.445 0-0.047-0.607-0.513-1.148-1.148-1.185-0.019 0-0.047 0-0.065 0zM13.51 26.699c0.541-0.503 1.26-0.663 1.829-0.467 0.522 0.188 0.923 0.672 0.923 1.456v2.912h-0.708v-2.809c0-0.289-0.084-0.513-0.214-0.672-0.533-0.615-1.829-0.177-1.829 0.953v2.528h-0.709v-4.302h0.709v0.402zM17.364 25.553l0.7-0.506v1.251h0.765v0.654h-0.765c0 0.952 0 1.876 0 2.845 0 0.206 0.132 0.263 0.28 0.263s0.355-0.057 0.513-0.075l0.157 0.616c-0.308 0.093-0.774 0.178-1.118 0.066-0.056-0.019-0.121-0.046-0.169-0.074-0.279-0.168-0.363-0.476-0.363-0.775v-2.864h-0.587v-0.654h0.587v-0.745zM23.448 28.435c0 1.144-0.749 2.286-1.992 2.286-1.264 0-2.021-1.131-2.021-2.286 0-1.148 0.757-2.268 2.021-2.277 1.236 0.016 1.992 1.129 1.992 2.277z"></path>
</symbol>
</defs>
</svg>

